<?xml version="1.0" standalone="no"?>
<!DOCTYPE svg PUBLIC "-//W3C//DTD SVG 20010904//EN"
 "http://www.w3.org/TR/2001/REC-SVG-20010904/DTD/svg10.dtd">
<svg version="1.0" xmlns="http://www.w3.org/2000/svg"
 width="128.000000pt" height="128.000000pt" viewBox="0 0 128.000000 128.000000"
 preserveAspectRatio="xMidYMid meet">

<g transform="translate(0.000000,128.000000) scale(0.100000,-0.100000)"
fill="#000000" stroke="none">
<path d="M0 640 l0 -640 640 0 640 0 0 640 0 640 -640 0 -640 0 0 -640z m792
594 c122 -29 260 -118 336 -216 242 -314 139 -762 -215 -934 -346 -168 -758
17 -869 391 -24 81 -24 239 0 320 31 106 85 194 166 275 161 161 362 218 582
164z"/>
<path d="M511 1164 c-86 -23 -186 -81 -254 -149 -106 -105 -157 -228 -157
-380 0 -145 49 -271 144 -367 226 -230 556 -235 783 -12 266 261 188 707 -152
869 -118 56 -249 70 -364 39z m284 -48 c28 -13 65 -39 84 -59 l33 -35 -63 5
c-35 3 -76 12 -91 19 -67 34 -146 7 -195 -67 -23 -35 -28 -53 -28 -104 0 -52
5 -70 32 -113 l31 -50 -24 -23 -25 -23 -25 29 c-115 136 -75 346 81 428 46 24
131 21 190 -7z m-293 -40 c-22 -23 -43 -53 -47 -66 -4 -12 -18 -38 -31 -57
-59 -88 -54 -164 20 -268 l44 -61 -21 -17 c-12 -9 -24 -17 -28 -17 -13 0 -91
103 -110 145 -23 50 -24 127 -2 196 27 85 131 179 207 188 5 1 -10 -19 -32
-43z m-186 -88 c-3 -7 -9 -20 -12 -29 -3 -8 -21 -24 -40 -34 -20 -10 -46 -32
-60 -48 -31 -37 -31 -25 1 29 31 53 132 127 111 82z m603 -12 c16 -9 56 -41
89 -71 61 -56 94 -114 108 -190 l7 -40 -40 35 c-22 19 -43 44 -47 56 -20 73
-129 154 -205 154 -53 -1 -110 -31 -158 -83 -37 -40 -43 -43 -48 -26 -4 10
-11 19 -16 19 -16 0 -10 31 12 61 25 36 94 84 140 98 43 13 119 7 158 -13z
m80 9 c33 -17 97 -87 104 -115 3 -10 -20 8 -50 40 -30 33 -63 62 -74 65 -10 4
-19 11 -19 16 0 12 6 11 39 -6z m-374 -39 c-28 -24 -51 -43 -53 -41 -2 2 4 17
12 34 14 26 40 41 86 50 2 1 -18 -19 -45 -43z m-349 -103 c-3 -27 -10 -62 -17
-79 -26 -66 9 -128 100 -176 24 -13 43 -28 42 -33 -2 -19 -79 -17 -119 4 -125
64 -146 217 -42 305 18 14 33 26 36 26 2 0 2 -21 0 -47z m645 5 c56 -31 57
-46 4 -40 -75 8 -119 -22 -266 -183 -72 -78 -149 -153 -171 -165 -51 -28 -117
-24 -155 11 l-25 24 60 6 c37 4 71 14 90 28 17 12 87 84 156 160 163 181 218
209 307 159z m104 -141 c58 -33 85 -78 85 -144 0 -60 -15 -96 -55 -133 l-28
-25 7 91 c6 82 5 93 -14 117 -12 15 -39 32 -61 38 -36 11 -44 10 -98 -18 -59
-30 -60 -31 -77 -12 -16 18 -16 20 7 45 61 65 160 83 234 41z m-257 -121 c56
-60 72 -96 72 -158 0 -61 -10 -81 -36 -76 -14 2 -21 15 -25 49 -9 58 -28 95
-73 138 -41 39 -43 47 -19 73 24 27 36 23 81 -26z m201 -25 c54 -98 16 -236
-96 -343 -121 -115 -283 -131 -415 -40 -42 29 -105 99 -96 107 9 10 97 -21
131 -46 73 -53 175 -61 256 -19 45 23 139 122 158 167 19 46 16 108 -7 152
l-19 39 22 15 c30 21 38 17 66 -32z m-697 -73 c29 -41 55 -65 91 -83 90 -44
160 -30 246 50 43 40 52 45 70 35 12 -6 21 -16 21 -23 0 -20 -95 -112 -137
-133 -54 -26 -144 -24 -211 5 -91 41 -182 163 -182 245 0 18 3 17 31 -10 17
-16 49 -55 71 -86z m-10 -140 c63 -63 75 -87 31 -64 -40 21 -90 75 -107 118
-20 48 -19 60 2 28 9 -14 43 -51 74 -82z m479 15 c-14 -51 -39 -73 -90 -80
-23 -3 -41 -3 -41 -1 0 3 17 17 38 32 21 14 49 44 62 65 30 47 46 39 31 -16z
m353 25 c-21 -42 -62 -86 -96 -104 -16 -8 -28 -12 -28 -9 0 17 43 69 77 94 23
16 44 34 48 40 15 25 14 9 -1 -21z m-550 -123 c13 -9 43 -19 67 -24 40 -8 41
-9 11 -10 -29 -1 -112 32 -112 44 0 9 10 5 34 -10z"/>
</g>
</svg>
